# This file uses centimeters as units for non-parametric coordinates.

g default
v 0.640064 -0.243895 1.410218
v 0.615021 -0.460012 1.409778
v 0.798413 -0.386734 0.107404
v 0.736012 -0.240183 0.242704
v 0.615021 -0.460012 0.213740
v 0.000000 0.214843 1.048835
v 0.502582 0.162293 1.009437
v 0.000000 0.460012 -0.004251
v 0.502582 0.357292 0.129173
v 0.676472 -0.169189 -1.470357
v 0.706717 -0.423373 -1.162152
v 0.000000 0.404975 -1.242319
v 1.033551 -0.163128 0.025024
v 0.873227 0.142850 0.028706
v 0.871627 0.103410 -1.074947
v 1.033551 -0.163128 -1.002137
v 0.000000 -0.460012 0.213740
v 0.000000 -0.460012 1.409778
v 0.000000 -0.247261 1.470357
v 0.000000 -0.423373 -1.162152
v 0.000000 -0.169189 -1.470357
v -0.736012 -0.240183 0.242704
v -0.502582 0.357292 0.129173
v -0.502582 0.162293 1.009437
v -0.640064 -0.243895 1.410218
v -0.706717 -0.423373 -1.162152
v -1.033551 -0.163128 -1.002137
v -1.033551 -0.163128 0.025023
v -0.798413 -0.386734 0.107404
v -0.615021 -0.460012 1.409778
v -0.615021 -0.460012 0.213740
v -0.873227 0.142850 0.028706
v -0.871627 0.103410 -1.074947
v -0.676471 -0.169189 -1.470357
vt 0.146119 0.749594
vt 0.239404 0.745793
vt 0.201990 0.860017
vt 0.117719 0.921747
vt 0.091408 0.747415
vt 0.146430 0.909881
vt 0.115087 0.733296
vt 0.152841 0.723206
vt 0.191564 0.726918
vt 0.102962 0.570809
vt 0.160902 0.590054
vt 0.202336 0.590147
vt 0.215531 0.524368
vt 0.026796 0.931470
vt 0.274392 0.877873
vt 0.212145 0.969134
vt 0.187677 0.993260
vt 0.262067 0.891068
vt 0.209851 0.986641
vt 0.303972 0.986635
vt 0.286881 0.919106
vt 0.313582 0.903991
vt 0.354590 0.955758
vt 0.301573 0.501294
vt 0.323066 0.580310
vt 0.308718 0.741557
vt 0.007748 0.753379
vt 0.010404 0.568132
vt 0.104832 0.516522
vt 0.011276 0.514443
vt 0.146119 0.749594
vt 0.239404 0.745793
vt 0.201990 0.860017
vt 0.146430 0.909881
vt 0.102962 0.570809
vt 0.160902 0.590054
vt 0.152841 0.723206
vt 0.115087 0.733296
vt 0.117719 0.921747
vt 0.212145 0.969134
vt 0.187677 0.993260
vt 0.091408 0.747415
vt 0.262067 0.891068
vt 0.286881 0.919106
vt 0.354590 0.955758
vt 0.303972 0.986635
vt 0.209851 0.986641
vt 0.308718 0.741557
vt 0.191564 0.726918
vt 0.202336 0.590147
vt 0.323066 0.580310
vt 0.215531 0.524368
vt 0.104832 0.516522
vt 0.010404 0.568132
vt 0.011276 0.514443
vt 0.313582 0.903991
vt 0.274392 0.877873
vt 0.026796 0.931470
vt 0.007748 0.753379
vt 0.301573 0.501294
vn 0.972689 0.157187 0.170786
vn 0.453699 0.883815 0.114143
vn 0.660455 0.716486 0.224604
vn 0.879550 0.181614 0.439782
vn 0.186743 -0.967626 -0.169785
vn 0.962549 -0.258155 -0.082801
vn 0.960054 -0.272512 0.063509
vn 0.592101 -0.804159 0.052397
vn 0.295118 -0.939779 0.172396
vn 0.000000 0.371790 0.928317
vn 0.000000 -0.984494 0.175417
vn 0.148375 -0.988925 -0.003568
vn -0.000000 0.931236 0.364418
vn 0.732688 0.661886 0.158352
vn 0.000000 0.995233 0.097525
vn 0.568257 0.796549 -0.206382
vn -0.000000 0.939867 -0.341542
vn 0.269308 -0.155406 -0.950433
vn 0.000000 -0.984493 -0.175426
vn 0.000000 -0.345054 -0.938583
vn 0.000000 -0.999892 -0.014719
vn -0.972689 0.157187 0.170786
vn -0.879550 0.181614 0.439782
vn -0.660455 0.716486 0.224604
vn -0.453699 0.883815 0.114143
vn -0.186743 -0.967626 -0.169785
vn -0.592100 -0.804159 0.052397
vn -0.960054 -0.272512 0.063509
vn -0.962549 -0.258155 -0.082801
vn -0.295118 -0.939779 0.172396
vn -0.148375 -0.988925 -0.003568
vn -0.732688 0.661886 0.158352
vn -0.568257 0.796549 -0.206382
vn -0.269308 -0.155406 -0.950433
s 1
g pCube1
f 4/1/1 9/2/2 7/3/3 1/6/4
f 11/10/5 16/11/6 13/8/7 3/7/8
f 2/4/9 1/6/4 19/16/10 18/17/11
f 1/6/4 2/4/9 5/5/12 4/1/1
f 1/6/4 7/3/3 6/18/13
f 4/21/1 13/23/7 14/20/14
f 4/21/1 14/20/14 9/19/2
f 3/7/8 5/5/12 11/10/5
f 6/18/13 7/3/3 9/2/2 8/26/15
f 14/9/14 15/12/16 9/2/2
f 15/12/16 12/25/17 9/2/2
f 12/25/17 8/26/15 9/2/2
f 16/11/6 10/13/18 15/12/16
f 10/29/18 11/10/5 20/28/19 21/30/20
f 10/13/18 12/25/17 15/12/16
f 14/9/14 13/8/7 16/11/6 15/12/16
f 3/22/8 4/21/1 5/15/12
f 18/14/11 17/27/21 5/5/12 2/4/9
f 6/18/13 19/16/10 1/6/4
f 17/27/21 20/28/19 11/10/5 5/5/12
f 21/24/20 12/25/17 10/13/18
f 11/10/5 10/29/18 16/11/6
f 4/21/1 3/22/8 13/23/7
f 22/31/22 25/34/23 24/33/24 23/32/25
f 26/35/26 29/38/27 28/37/28 27/36/29
f 30/39/30 18/41/11 19/40/10 25/34/23
f 25/34/23 22/31/22 31/42/31 30/39/30
f 25/34/23 6/43/13 24/33/24
f 22/44/22 32/46/32 28/45/28
f 22/44/22 23/47/25 32/46/32
f 29/38/27 26/35/26 31/42/31
f 6/43/13 8/48/15 23/32/25 24/33/24
f 32/49/32 23/32/25 33/50/33
f 33/50/33 23/32/25 12/51/17
f 12/51/17 23/32/25 8/48/15
f 27/36/29 33/50/33 34/52/34
f 34/53/34 21/55/20 20/54/19 26/35/26
f 34/52/34 33/50/33 12/51/17
f 32/49/32 33/50/33 27/36/29 28/37/28
f 29/56/27 31/57/31 22/44/22
f 18/58/11 30/39/30 31/42/31 17/59/21
f 6/43/13 25/34/23 19/40/10
f 17/59/21 31/42/31 26/35/26 20/54/19
f 21/60/20 34/52/34 12/51/17
f 26/35/26 27/36/29 34/53/34
f 22/44/22 28/45/28 29/56/27
