# This file uses centimeters as units for non-parametric coordinates.

g default
v 0.274748 -0.452632 2.130599
v 0.274748 0.153506 2.340452
v 0.455569 0.163667 2.162568
v 0.274748 0.474105 2.131900
v 0.542793 0.396585 0.756693
v 0.274748 0.633450 0.690654
v 0.360769 -0.452522 0.457248
v 0.455569 -0.274748 0.869042
v 0.409563 0.011087 -2.239572
v 0.274748 0.462863 -2.164124
v 0.409563 -0.706555 -1.746052
v 0.446790 -0.756627 -1.302900
v 1.061632 0.031677 0.350636
v 0.904414 0.380486 0.386943
v 0.898369 -0.299265 0.395359
v 0.904414 0.301837 -0.978301
v 0.972824 -0.132756 -0.887027
v -0.004536 -0.452632 2.130599
v -0.004536 0.153506 2.340452
v -0.004536 0.633450 0.690654
v -0.004536 0.474105 2.131900
v -0.004536 0.462863 -2.164124
v -0.004536 -0.837744 -1.518018
v -0.004536 -0.469737 0.468803
v -0.004536 -0.744824 -1.817005
v -0.004536 0.055576 -2.308483
v -0.464642 -0.274748 0.869042
v -0.551866 0.396585 0.756693
v -0.464642 0.163667 2.162568
v -0.283820 0.474105 2.131900
v -0.283820 0.633450 0.690654
v -0.283820 0.462863 -2.164124
v -0.913487 0.380486 0.386943
v -0.913487 0.301837 -0.978301
v -1.070705 0.031677 0.350636
v -0.455863 -0.756627 -1.302900
v -0.907442 -0.299265 0.395359
v -0.369841 -0.452522 0.457248
v -0.418635 0.011087 -2.239572
v -0.418635 -0.706555 -1.746052
v -0.981896 -0.132756 -0.887027
v -0.283820 -0.452632 2.130599
v -0.283820 0.153506 2.340452
vt 0.663516 0.532150
vt 0.554020 0.541087
vt 0.593655 0.377704
vt 0.539602 0.370943
vt 0.501026 0.542437
vt 0.686071 0.373656
vt 0.698508 0.579027
vt 0.116735 0.370089
vt 0.231133 0.386996
vt 0.464111 0.537880
vt 0.498658 0.366119
vt 0.494856 0.878058
vt 0.478990 0.925165
vt 0.571421 0.592064
vt 0.563078 0.736014
vt 0.242462 0.280841
vt 0.695404 0.795318
vt 0.639315 0.591118
vt 0.588448 0.299444
vt 0.682233 0.850792
vt 0.611989 0.729555
vt 0.605854 0.596929
vt 0.593177 0.343080
vt 0.746786 0.573545
vt 0.754980 0.825486
vt 0.752335 0.864139
vt 0.698200 0.324776
vt 0.128843 0.285855
vt 0.563623 0.891961
vt 0.171599 0.402137
vt 0.551125 0.953998
vt 0.527588 0.320963
vt 0.700667 0.922798
vt 0.458847 0.877213
vt 0.726110 0.371235
vt 0.663516 0.532150
vt 0.554020 0.541087
vt 0.593655 0.377704
vt 0.539602 0.370943
vt 0.501026 0.542437
vt 0.464111 0.537880
vt 0.498658 0.366119
vt 0.494856 0.878058
vt 0.458847 0.877213
vt 0.571421 0.592064
vt 0.563078 0.736014
vt 0.171599 0.402137
vt 0.116735 0.370089
vt 0.128843 0.285855
vt 0.695404 0.795318
vt 0.639315 0.591118
vt 0.698508 0.579027
vt 0.563623 0.891961
vt 0.682233 0.850792
vt 0.700667 0.922798
vt 0.551125 0.953998
vt 0.611989 0.729555
vt 0.686071 0.373656
vt 0.605854 0.596929
vt 0.754980 0.825486
vt 0.752335 0.864139
vt 0.593177 0.343080
vt 0.726110 0.371235
vt 0.746786 0.573545
vt 0.588448 0.299444
vt 0.698200 0.324776
vt 0.527588 0.320963
vt 0.478990 0.925165
vt 0.242462 0.280841
vt 0.231133 0.386996
vn 0.924288 -0.318046 0.211043
vn 0.897791 0.310009 0.312836
vn 0.981183 0.005531 0.193000
vn 0.513093 0.822973 0.243827
vn 0.251496 0.967829 0.007522
vn 0.000000 0.960195 0.279331
vn 0.000000 0.999997 -0.002617
vn 0.401561 0.875489 -0.268826
vn 0.000000 0.981939 -0.189200
vn 0.593784 0.802387 0.059973
vn 0.595388 0.792068 -0.134691
vn 0.977749 -0.105693 0.181205
vn 0.412285 -0.908023 0.074271
vn 0.641492 -0.749418 0.163894
vn 0.198100 -0.969259 0.145922
vn 0.729747 -0.490531 -0.476286
vn -0.000000 -0.679371 -0.733795
vn 0.756157 -0.113217 -0.644522
vn 0.000000 -0.290468 -0.956885
vn 0.928610 -0.343872 -0.139410
vn 0.678385 -0.694843 0.238720
vn 0.000000 -0.995693 0.092715
vn 0.324792 -0.014851 0.945669
vn 0.000000 -0.948781 0.315936
vn 0.000000 -0.995545 0.094289
vn 0.000000 -0.001404 0.999999
vn -0.924288 -0.318046 0.211043
vn -0.981183 0.005531 0.193000
vn -0.897791 0.310009 0.312836
vn -0.513093 0.822973 0.243827
vn -0.251496 0.967829 0.007522
vn -0.401561 0.875489 -0.268825
vn -0.593784 0.802387 0.059973
vn -0.595388 0.792068 -0.134691
vn -0.977749 -0.105693 0.181205
vn -0.412285 -0.908022 0.074271
vn -0.198100 -0.969259 0.145922
vn -0.641492 -0.749418 0.163894
vn -0.756156 -0.113217 -0.644522
vn -0.729747 -0.490531 -0.476286
vn -0.928610 -0.343872 -0.139410
vn -0.678385 -0.694843 0.238720
vn -0.324792 -0.014851 0.945669
s 1
g pCube4
f 8/1/1 5/2/2 3/3/3
f 4/4/4 6/5/5 21/11/6
f 21/11/6 6/5/5 20/10/7
f 6/5/5 10/12/8 20/10/7
f 20/10/7 10/12/8 22/34/9
f 14/14/10 16/15/11 6/5/5
f 6/5/5 16/15/11 10/12/8
f 13/30/12 14/8/10 5/28/2
f 12/17/13 15/18/14 7/7/15
f 11/20/16 25/33/17 9/29/18
f 9/29/18 25/33/17 26/31/19
f 17/21/20 11/20/16 9/29/18
f 3/3/3 1/6/21 8/1/1
f 8/1/1 1/6/21 7/7/15
f 3/3/3 5/2/2 4/4/4
f 4/4/4 5/2/2 6/5/5
f 5/2/2 14/14/10 6/5/5
f 17/21/20 9/29/18 16/15/11
f 16/15/11 9/29/18 10/12/8
f 11/20/16 17/21/20 12/17/13
f 15/18/14 12/17/13 13/22/12
f 12/17/13 17/21/20 13/22/12
f 12/17/13 23/25/22 11/20/16
f 11/20/16 23/25/22 25/26/17
f 14/14/10 13/22/12 16/15/11
f 16/15/11 13/22/12 17/21/20
f 1/6/21 3/3/3 2/23/23
f 3/3/3 4/4/4 2/23/23
f 18/35/24 24/24/25 1/6/21
f 1/6/21 24/24/25 7/7/15
f 23/25/22 12/17/13 24/24/25
f 24/24/25 12/17/13 7/7/15
f 19/19/26 18/27/24 2/23/23
f 2/23/23 18/27/24 1/6/21
f 21/32/6 19/19/26 4/4/4
f 4/4/4 19/19/26 2/23/23
f 22/13/9 10/12/8 26/31/19
f 26/31/19 10/12/8 9/29/18
f 7/7/15 15/18/14 8/1/1
f 13/30/12 8/16/1 15/9/14
f 13/30/12 5/28/2 8/16/1
f 27/36/27 29/38/28 28/37/29
f 30/39/30 21/42/6 31/40/31
f 31/40/31 21/42/6 20/41/7
f 31/40/31 20/41/7 32/43/32
f 32/43/32 20/41/7 22/44/9
f 33/45/33 31/40/31 34/46/34
f 34/46/34 31/40/31 32/43/32
f 35/47/35 28/49/29 33/48/33
f 36/50/36 38/52/37 37/51/38
f 26/56/19 25/55/17 39/53/39
f 39/53/39 25/55/17 40/54/40
f 41/57/41 39/53/39 40/54/40
f 29/38/28 27/36/27 42/58/42
f 42/58/42 27/36/27 38/52/37
f 31/40/31 28/37/29 30/39/30
f 30/39/30 28/37/29 29/38/28
f 28/37/29 31/40/31 33/45/33
f 32/43/32 39/53/39 34/46/34
f 34/46/34 39/53/39 41/57/41
f 40/54/40 36/50/36 41/57/41
f 37/51/38 35/59/35 36/50/36
f 36/50/36 35/59/35 41/57/41
f 25/61/17 23/60/22 40/54/40
f 40/54/40 23/60/22 36/50/36
f 41/57/41 35/59/35 34/46/34
f 34/46/34 35/59/35 33/45/33
f 42/58/42 43/62/43 29/38/28
f 29/38/28 43/62/43 30/39/30
f 18/63/24 42/58/42 24/64/25
f 24/64/25 42/58/42 38/52/37
f 38/52/37 36/50/36 24/64/25
f 24/64/25 36/50/36 23/60/22
f 19/65/26 43/62/43 18/66/24
f 18/66/24 43/62/43 42/58/42
f 21/67/6 30/39/30 19/65/26
f 19/65/26 30/39/30 43/62/43
f 39/53/39 32/43/32 26/56/19
f 26/56/19 32/43/32 22/68/9
f 38/52/37 27/36/27 37/51/38
f 35/47/35 37/70/38 27/69/27
f 35/47/35 27/69/27 28/49/29
